<?xml version="1.0" standalone="no"?><svg xmlns="http://www.w3.org/2000/svg" viewBox="0 0 1440 320"><path fill="#00cba9" fill-opacity="1" d="M0,256L20,256C40,256,80,256,120,256C160,256,200,256,240,240C280,224,320,192,360,186.7C400,181,440,203,480,213.3C520,224,560,224,600,192C640,160,680,96,720,101.3C760,107,800,181,840,192C880,203,920,149,960,112C1000,75,1040,53,1080,48C1120,43,1160,53,1200,85.3C1240,117,1280,171,1320,213.3C1360,256,1400,288,1420,304L1440,320L1440,0L1420,0C1400,0,1360,0,1320,0C1280,0,1240,0,1200,0C1160,0,1120,0,1080,0C1040,0,1000,0,960,0C920,0,880,0,840,0C800,0,760,0,720,0C680,0,640,0,600,0C560,0,520,0,480,0C440,0,400,0,360,0C320,0,280,0,240,0C200,0,160,0,120,0C80,0,40,0,20,0L0,0Z"></path></svg>